<svg version="1.2" xmlns="http://www.w3.org/2000/svg" viewBox="0 0 1392 188" width="64" height="9">
	<style>
		.s0 { paint-order:stroke fill markers;stroke: #2f1401;stroke-width: 36;stroke-linejoin: round;;fill: #f85e00 } 
	</style>
	<path id="Janken Arena" class="s0" aria-label="Janken Arena"  d="m93 19v97.3q0 21.9-15.6 37.5-15.6 15.6-37.5 15.6l-8.9-35.4h8.9q7.2 0 12.3-5.1 5.3-5.3 5.3-12.6v-61.9h-38.9v-35.4zm94 0l39 115h-37.2l-4.8-14.2h-40l-4.8 14.2h-37.1l38.9-115zm-34.7 76.1h23.4l-11.7-34.4zm187.9-76.1v115.1h-35.4q0-33-14.5-48.4-9.5-10-20.9-10v58.4h-35.4v-115.1h0.7q25 0 45.5 9.7 18.2 8.7 24.6 20.4v-30.1zm118.6 79.7v35.4h-24.8q-14.2 0-24.8-10.7l-24.8-24.7v35.4h-35.4v-115.1h35.4v45.1l30.1-45.1h40.7l-39.8 59.7 16.8 16.6q3.4 3.4 10.6 3.4zm115.5 0v35.4h-106.2v-115.1h106.2v35.4h-70.8v8.9h53.1v26.5h-53.1v8.9zm115-79.7v115.1h-35.4q0-33-14.5-48.4-9.6-10-20.9-10v58.4h-35.4v-115.1h0.7q25 0 45.5 9.7 18.2 8.7 24.6 20.4v-30.1zm164.8 0l38.9 115.1h-37.2l-4.8-14.2h-40l-4.7 14.2h-37.2l26.9-79.7h-39.3v-35.4zm-34.7 76.1h23.4l-11.7-34.3zm192.5 3.5v35.4h-23q-14.2 0-24.8-10.6l-26.6-26.5v37.1h-35.4v-115h67.3q16.1 0 27.4 11.5 11.5 11.3 11.5 27.4 0 11.5-6.3 21.3-6.2 9.5-16.7 14.3 2.3 5.1 8.9 5.1zm-39-40.7q0-8.8-10.6-8.8h-24.8v17.7h24.8q10.6 0 10.6-8.9zm153.4 40.7v35.4h-106.2v-115h106.2v35.4h-70.8v8.8h53.1v26.6h-53.1v8.8zm115-79.6v115h-35.4q0-32.9-14.5-48.3-9.5-10.1-20.9-10.1v58.4h-35.4v-115h0.7q25 0 45.5 9.7 18.3 8.7 24.6 20.4v-30.1zm93.8 0l38.9 115h-37.1l-4.8-14.1h-40l-4.8 14.1h-37.2l39-115zm-34.7 76.1h23.3l-11.6-34.4z"/>
</svg>